<svg width="26" height="26" viewBox="0 0 26 26" fill="none" xmlns="http://www.w3.org/2000/svg">
<path id="Vector" d="M13 1C6.37931 1 1 6.37931 1 13C1 19.6207 6.37931 25 13 25C19.6207 25 25 19.6207 25 13C25 6.37931 19.6207 1 13 1ZM13 2.24138C18.9379 2.24138 23.7586 7.06207 23.7586 13C23.7586 18.9379 18.9379 23.7586 13 23.7586C7.06207 23.7586 2.24138 18.9379 2.24138 13C2.24138 7.06207 7.06207 2.24138 13 2.24138ZM17.3525 9.88605C17.1947 9.89122 17.0346 9.9587 16.9104 10.0828L12.5862 14.5723L10.331 12.1518C10.1034 11.9035 9.71043 11.8826 9.46215 12.1102C9.21387 12.3378 9.19294 12.7311 9.42053 12.9794L12.1312 15.8966C12.2553 16.0207 12.4 16.1034 12.5862 16.1034C12.7517 16.1034 12.9171 16.0413 13.0412 15.9172L17.7998 10.931C18.0274 10.6828 18.0275 10.2898 17.7792 10.0622C17.6654 9.93809 17.5103 9.88087 17.3525 9.88605Z" fill="#FFB84C" stroke="#FFB84C"/>
</svg>
